<mxfile host="app.diagrams.net" agent="Mozilla/5.0 (Windows NT 10.0; Win64; x64) AppleWebKit/537.36 (KHTML, like Gecko) Chrome/137.0.0.0 Safari/537.36" version="27.1.3">
  <diagram name="第 1 页" id="OsT5ZaaNAK7H2gvA3B1P">
    <mxGraphModel dx="1000" dy="677" grid="1" gridSize="10" guides="1" tooltips="1" connect="1" arrows="1" fold="1" page="1" pageScale="1" pageWidth="827" pageHeight="1169" math="0" shadow="0">
      <root>
        <mxCell id="0" />
        <mxCell id="1" parent="0" />
        <mxCell id="IYH3K6eARaPcJFEbaiTM-6" style="edgeStyle=orthogonalEdgeStyle;rounded=0;orthogonalLoop=1;jettySize=auto;html=1;exitX=0;exitY=0.5;exitDx=0;exitDy=0;entryX=0.5;entryY=0;entryDx=0;entryDy=0;curved=1;fontSize=15;" edge="1" parent="1" source="IYH3K6eARaPcJFEbaiTM-1" target="IYH3K6eARaPcJFEbaiTM-2">
          <mxGeometry relative="1" as="geometry" />
        </mxCell>
        <mxCell id="IYH3K6eARaPcJFEbaiTM-7" value="&lt;font&gt;0&lt;/font&gt;" style="edgeLabel;html=1;align=center;verticalAlign=middle;resizable=0;points=[];fontFamily=Helvetica;fontSize=15;fontColor=default;labelBackgroundColor=default;" vertex="1" connectable="0" parent="IYH3K6eARaPcJFEbaiTM-6">
          <mxGeometry x="-0.3222" y="13" relative="1" as="geometry">
            <mxPoint x="-9" y="-13" as="offset" />
          </mxGeometry>
        </mxCell>
        <mxCell id="IYH3K6eARaPcJFEbaiTM-8" style="edgeStyle=orthogonalEdgeStyle;shape=connector;curved=1;rounded=0;orthogonalLoop=1;jettySize=auto;html=1;exitX=1;exitY=0.5;exitDx=0;exitDy=0;entryX=0.5;entryY=0;entryDx=0;entryDy=0;strokeColor=default;align=center;verticalAlign=middle;fontFamily=Helvetica;fontSize=15;fontColor=default;labelBackgroundColor=default;endArrow=classic;" edge="1" parent="1" source="IYH3K6eARaPcJFEbaiTM-1" target="IYH3K6eARaPcJFEbaiTM-3">
          <mxGeometry relative="1" as="geometry" />
        </mxCell>
        <mxCell id="IYH3K6eARaPcJFEbaiTM-9" value="0" style="edgeLabel;html=1;align=center;verticalAlign=middle;resizable=0;points=[];fontFamily=Helvetica;fontSize=15;fontColor=default;labelBackgroundColor=default;" vertex="1" connectable="0" parent="IYH3K6eARaPcJFEbaiTM-8">
          <mxGeometry x="0.2222" y="-13" relative="1" as="geometry">
            <mxPoint y="-13" as="offset" />
          </mxGeometry>
        </mxCell>
        <mxCell id="IYH3K6eARaPcJFEbaiTM-1" value="Tb" style="ellipse;whiteSpace=wrap;html=1;aspect=fixed;fontSize=15;" vertex="1" parent="1">
          <mxGeometry x="360" y="200" width="40" height="40" as="geometry" />
        </mxCell>
        <mxCell id="IYH3K6eARaPcJFEbaiTM-10" style="edgeStyle=orthogonalEdgeStyle;shape=connector;curved=1;rounded=0;orthogonalLoop=1;jettySize=auto;html=1;exitX=1;exitY=0;exitDx=0;exitDy=0;entryX=0;entryY=0;entryDx=0;entryDy=0;strokeColor=default;align=center;verticalAlign=middle;fontFamily=Helvetica;fontSize=15;fontColor=default;labelBackgroundColor=default;endArrow=classic;" edge="1" parent="1" source="IYH3K6eARaPcJFEbaiTM-2" target="IYH3K6eARaPcJFEbaiTM-3">
          <mxGeometry relative="1" as="geometry" />
        </mxCell>
        <mxCell id="IYH3K6eARaPcJFEbaiTM-11" value="0" style="edgeLabel;html=1;align=center;verticalAlign=middle;resizable=0;points=[];fontFamily=Helvetica;fontSize=15;fontColor=default;labelBackgroundColor=default;" vertex="1" connectable="0" parent="IYH3K6eARaPcJFEbaiTM-10">
          <mxGeometry x="-0.0253" y="3" relative="1" as="geometry">
            <mxPoint y="-13" as="offset" />
          </mxGeometry>
        </mxCell>
        <mxCell id="IYH3K6eARaPcJFEbaiTM-14" style="edgeStyle=orthogonalEdgeStyle;shape=connector;curved=1;rounded=0;orthogonalLoop=1;jettySize=auto;html=1;exitX=0.5;exitY=1;exitDx=0;exitDy=0;entryX=0;entryY=0.5;entryDx=0;entryDy=0;strokeColor=default;align=center;verticalAlign=middle;fontFamily=Helvetica;fontSize=15;fontColor=default;labelBackgroundColor=default;endArrow=classic;" edge="1" parent="1" source="IYH3K6eARaPcJFEbaiTM-2" target="IYH3K6eARaPcJFEbaiTM-4">
          <mxGeometry relative="1" as="geometry" />
        </mxCell>
        <mxCell id="IYH3K6eARaPcJFEbaiTM-16" value="0" style="edgeLabel;html=1;align=center;verticalAlign=middle;resizable=0;points=[];fontFamily=Helvetica;fontSize=15;fontColor=default;labelBackgroundColor=default;" vertex="1" connectable="0" parent="IYH3K6eARaPcJFEbaiTM-14">
          <mxGeometry x="-0.3444" y="5" relative="1" as="geometry">
            <mxPoint x="-5" y="11" as="offset" />
          </mxGeometry>
        </mxCell>
        <mxCell id="IYH3K6eARaPcJFEbaiTM-2" value="&lt;font&gt;T1&lt;/font&gt;" style="ellipse;whiteSpace=wrap;html=1;aspect=fixed;fontSize=15;" vertex="1" parent="1">
          <mxGeometry x="280" y="280" width="40" height="40" as="geometry" />
        </mxCell>
        <mxCell id="IYH3K6eARaPcJFEbaiTM-12" style="edgeStyle=orthogonalEdgeStyle;shape=connector;curved=1;rounded=0;orthogonalLoop=1;jettySize=auto;html=1;exitX=0;exitY=1;exitDx=0;exitDy=0;entryX=1;entryY=1;entryDx=0;entryDy=0;strokeColor=default;align=center;verticalAlign=middle;fontFamily=Helvetica;fontSize=15;fontColor=default;labelBackgroundColor=default;endArrow=classic;" edge="1" parent="1" source="IYH3K6eARaPcJFEbaiTM-3" target="IYH3K6eARaPcJFEbaiTM-2">
          <mxGeometry relative="1" as="geometry" />
        </mxCell>
        <mxCell id="IYH3K6eARaPcJFEbaiTM-13" value="0" style="edgeLabel;html=1;align=center;verticalAlign=middle;resizable=0;points=[];fontFamily=Helvetica;fontSize=15;fontColor=default;labelBackgroundColor=default;" vertex="1" connectable="0" parent="IYH3K6eARaPcJFEbaiTM-12">
          <mxGeometry x="0.0101" y="-2" relative="1" as="geometry">
            <mxPoint x="1" y="18" as="offset" />
          </mxGeometry>
        </mxCell>
        <mxCell id="IYH3K6eARaPcJFEbaiTM-15" style="edgeStyle=orthogonalEdgeStyle;shape=connector;curved=1;rounded=0;orthogonalLoop=1;jettySize=auto;html=1;exitX=0.5;exitY=1;exitDx=0;exitDy=0;entryX=1;entryY=0.5;entryDx=0;entryDy=0;strokeColor=default;align=center;verticalAlign=middle;fontFamily=Helvetica;fontSize=15;fontColor=default;labelBackgroundColor=default;endArrow=classic;" edge="1" parent="1" source="IYH3K6eARaPcJFEbaiTM-3" target="IYH3K6eARaPcJFEbaiTM-4">
          <mxGeometry relative="1" as="geometry" />
        </mxCell>
        <mxCell id="IYH3K6eARaPcJFEbaiTM-17" value="0" style="edgeLabel;html=1;align=center;verticalAlign=middle;resizable=0;points=[];fontFamily=Helvetica;fontSize=15;fontColor=default;labelBackgroundColor=default;" vertex="1" connectable="0" parent="IYH3K6eARaPcJFEbaiTM-15">
          <mxGeometry x="-0.3611" y="-11" relative="1" as="geometry">
            <mxPoint x="11" y="2" as="offset" />
          </mxGeometry>
        </mxCell>
        <mxCell id="IYH3K6eARaPcJFEbaiTM-3" value="T2" style="ellipse;whiteSpace=wrap;html=1;aspect=fixed;fontSize=15;" vertex="1" parent="1">
          <mxGeometry x="440" y="280" width="40" height="40" as="geometry" />
        </mxCell>
        <mxCell id="IYH3K6eARaPcJFEbaiTM-4" value="Tf" style="ellipse;whiteSpace=wrap;html=1;aspect=fixed;fontSize=15;" vertex="1" parent="1">
          <mxGeometry x="360" y="360" width="40" height="40" as="geometry" />
        </mxCell>
      </root>
    </mxGraphModel>
  </diagram>
</mxfile>
